# MagicaVoxel @ Ephtracy

# group
g prj20171217b

# material
mtllib prj20171217b.mtl
usemtl palette

# normals
vn -1 0 0
vn 1 0 0
vn 0 0 1
vn 0 0 -1
vn 0 -1 0
vn 0 1 0

# texcoords
vt 0.908203 0.5
vt 0.970703 0.5

# verts
v -20 0 11
v -20 0 1
v -20 0 -1
v -20 0 -11
v -20 9 20
v -20 9 11
v -20 9 -11
v -20 9 -20
v -20 13 1
v -20 13 -1
v -20 14 1
v -20 14 -1
v -20 16 6
v -20 16 -6
v -20 19 20
v -20 19 11
v -20 19 10
v -20 19 6
v -20 19 -6
v -20 19 -10
v -20 19 -11
v -20 19 -20
v -20 21 20
v -20 21 11
v -20 21 10
v -20 21 6
v -20 21 -6
v -20 21 -10
v -20 21 -11
v -20 21 -20
v -20 24 6
v -20 24 -6
v -20 26 1
v -20 26 -1
v -20 27 1
v -20 27 -1
v -20 31 20
v -20 31 11
v -20 31 -11
v -20 31 -20
v -20 40 11
v -20 40 1
v -20 40 -1
v -20 40 -11
v -12 16 6
v -12 16 -6
v -12 19 6
v -12 19 -6
v -12 21 6
v -12 21 -6
v -12 24 6
v -12 24 -6
v -11 0 20
v -11 0 11
v -11 0 -11
v -11 0 -20
v -11 9 20
v -11 9 11
v -11 9 -11
v -11 9 -20
v -11 31 20
v -11 31 11
v -11 31 -11
v -11 31 -20
v -11 40 20
v -11 40 11
v -11 40 -11
v -11 40 -20
v -9 19 20
v -9 19 11
v -9 19 -11
v -9 19 -20
v -9 21 20
v -9 21 11
v -9 21 -11
v -9 21 -20
v -7 0 1
v -7 0 -1
v -7 13 1
v -7 13 -1
v -7 27 1
v -7 27 -1
v -7 40 1
v -7 40 -1
v 1 0 20
v 1 0 7
v 1 0 -7
v 1 0 -20
v 1 13 20
v 1 13 7
v 1 13 -7
v 1 13 -20
v 1 27 20
v 1 27 7
v 1 27 -7
v 1 27 -20
v 1 40 20
v 1 40 7
v 1 40 -7
v 1 40 -20
v 5 16 20
v 5 16 10
v 5 16 -10
v 5 16 -20
v 5 19 20
v 5 19 10
v 5 19 -10
v 5 19 -20
v 5 21 20
v 5 21 10
v 5 21 -10
v 5 21 -20
v 5 24 20
v 5 24 10
v 5 24 -10
v 5 24 -20
v -5 16 20
v -5 16 10
v -5 16 -10
v -5 16 -20
v -5 19 20
v -5 19 10
v -5 19 -10
v -5 19 -20
v -5 21 20
v -5 21 10
v -5 21 -10
v -5 21 -20
v -5 24 20
v -5 24 10
v -5 24 -10
v -5 24 -20
v -1 0 20
v -1 0 7
v -1 0 -7
v -1 0 -20
v -1 13 20
v -1 13 7
v -1 13 -7
v -1 13 -20
v -1 27 20
v -1 27 7
v -1 27 -7
v -1 27 -20
v -1 40 20
v -1 40 7
v -1 40 -7
v -1 40 -20
v 7 0 1
v 7 0 -1
v 7 13 1
v 7 13 -1
v 7 27 1
v 7 27 -1
v 7 40 1
v 7 40 -1
v 9 19 20
v 9 19 11
v 9 19 -11
v 9 19 -20
v 9 21 20
v 9 21 11
v 9 21 -11
v 9 21 -20
v 11 0 20
v 11 0 11
v 11 0 -11
v 11 0 -20
v 11 9 20
v 11 9 11
v 11 9 -11
v 11 9 -20
v 11 31 20
v 11 31 11
v 11 31 -11
v 11 31 -20
v 11 40 20
v 11 40 11
v 11 40 -11
v 11 40 -20
v 12 16 6
v 12 16 -6
v 12 19 6
v 12 19 -6
v 12 21 6
v 12 21 -6
v 12 24 6
v 12 24 -6
v 20 0 11
v 20 0 1
v 20 0 -1
v 20 0 -11
v 20 9 20
v 20 9 11
v 20 9 -11
v 20 9 -20
v 20 13 1
v 20 13 -1
v 20 14 1
v 20 14 -1
v 20 16 6
v 20 16 -6
v 20 19 20
v 20 19 11
v 20 19 10
v 20 19 6
v 20 19 -6
v 20 19 -10
v 20 19 -11
v 20 19 -20
v 20 21 20
v 20 21 11
v 20 21 10
v 20 21 6
v 20 21 -6
v 20 21 -10
v 20 21 -11
v 20 21 -20
v 20 24 6
v 20 24 -6
v 20 26 1
v 20 26 -1
v 20 27 1
v 20 27 -1
v 20 31 20
v 20 31 11
v 20 31 -11
v 20 31 -20
v 20 40 11
v 20 40 1
v 20 40 -1
v 20 40 -11
v -20 9 20
v -20 19 20
v -20 21 20
v -20 31 20
v -11 0 20
v -11 9 20
v -11 31 20
v -11 40 20
v -9 19 20
v -9 21 20
v -8 19 20
v -8 21 20
v -5 16 20
v -5 19 20
v -5 21 20
v -5 24 20
v -1 0 20
v -1 13 20
v -1 14 20
v -1 26 20
v -1 27 20
v -1 40 20
v 1 0 20
v 1 13 20
v 1 14 20
v 1 26 20
v 1 27 20
v 1 40 20
v 5 16 20
v 5 19 20
v 5 21 20
v 5 24 20
v 8 19 20
v 8 21 20
v 9 19 20
v 9 21 20
v 11 0 20
v 11 9 20
v 11 31 20
v 11 40 20
v 20 9 20
v 20 19 20
v 20 21 20
v 20 31 20
v -20 0 11
v -20 9 11
v -20 19 11
v -20 21 11
v -20 31 11
v -20 40 11
v -11 0 11
v -11 9 11
v -11 31 11
v -11 40 11
v -9 19 11
v -9 21 11
v 9 19 11
v 9 21 11
v 11 0 11
v 11 9 11
v 11 31 11
v 11 40 11
v 20 0 11
v 20 9 11
v 20 19 11
v 20 21 11
v 20 31 11
v 20 40 11
v -5 16 10
v -5 19 10
v -5 21 10
v -5 24 10
v 5 16 10
v 5 19 10
v 5 21 10
v 5 24 10
v -1 0 7
v -1 13 7
v -1 27 7
v -1 40 7
v 1 0 7
v 1 13 7
v 1 27 7
v 1 40 7
v -20 0 -1
v -20 13 -1
v -20 27 -1
v -20 40 -1
v -7 0 -1
v -7 13 -1
v -7 27 -1
v -7 40 -1
v 7 0 -1
v 7 13 -1
v 7 27 -1
v 7 40 -1
v 20 0 -1
v 20 13 -1
v 20 27 -1
v 20 40 -1
v -20 16 -6
v -20 19 -6
v -20 21 -6
v -20 24 -6
v -12 16 -6
v -12 19 -6
v -12 21 -6
v -12 24 -6
v 12 16 -6
v 12 19 -6
v 12 21 -6
v 12 24 -6
v 20 16 -6
v 20 19 -6
v 20 21 -6
v 20 24 -6
v -20 16 6
v -20 19 6
v -20 21 6
v -20 24 6
v -12 16 6
v -12 19 6
v -12 21 6
v -12 24 6
v 12 16 6
v 12 19 6
v 12 21 6
v 12 24 6
v 20 16 6
v 20 19 6
v 20 21 6
v 20 24 6
v -20 0 1
v -20 13 1
v -20 27 1
v -20 40 1
v -7 0 1
v -7 13 1
v -7 27 1
v -7 40 1
v 7 0 1
v 7 13 1
v 7 27 1
v 7 40 1
v 20 0 1
v 20 13 1
v 20 27 1
v 20 40 1
v -1 0 -7
v -1 13 -7
v -1 27 -7
v -1 40 -7
v 1 0 -7
v 1 13 -7
v 1 27 -7
v 1 40 -7
v -5 16 -10
v -5 19 -10
v -5 21 -10
v -5 24 -10
v 5 16 -10
v 5 19 -10
v 5 21 -10
v 5 24 -10
v -20 0 -11
v -20 9 -11
v -20 19 -11
v -20 21 -11
v -20 31 -11
v -20 40 -11
v -11 0 -11
v -11 9 -11
v -11 31 -11
v -11 40 -11
v -9 19 -11
v -9 21 -11
v 9 19 -11
v 9 21 -11
v 11 0 -11
v 11 9 -11
v 11 31 -11
v 11 40 -11
v 20 0 -11
v 20 9 -11
v 20 19 -11
v 20 21 -11
v 20 31 -11
v 20 40 -11
v -20 9 -20
v -20 19 -20
v -20 21 -20
v -20 31 -20
v -11 0 -20
v -11 9 -20
v -11 31 -20
v -11 40 -20
v -9 19 -20
v -9 21 -20
v -8 19 -20
v -8 21 -20
v -5 16 -20
v -5 19 -20
v -5 21 -20
v -5 24 -20
v -1 0 -20
v -1 13 -20
v -1 14 -20
v -1 26 -20
v -1 27 -20
v -1 40 -20
v 1 0 -20
v 1 13 -20
v 1 14 -20
v 1 26 -20
v 1 27 -20
v 1 40 -20
v 5 16 -20
v 5 19 -20
v 5 21 -20
v 5 24 -20
v 8 19 -20
v 8 21 -20
v 9 19 -20
v 9 21 -20
v 11 0 -20
v 11 9 -20
v 11 31 -20
v 11 40 -20
v 20 9 -20
v 20 19 -20
v 20 21 -20
v 20 31 -20
v -11 0 20
v -1 0 20
v 1 0 20
v 11 0 20
v -20 0 11
v -11 0 11
v 11 0 11
v 20 0 11
v -1 0 7
v 1 0 7
v -1 0 6
v 1 0 6
v -20 0 1
v -7 0 1
v -6 0 1
v 6 0 1
v 7 0 1
v 20 0 1
v -20 0 -1
v -7 0 -1
v -6 0 -1
v 6 0 -1
v 7 0 -1
v 20 0 -1
v -1 0 -6
v 1 0 -6
v -1 0 -7
v 1 0 -7
v -20 0 -11
v -11 0 -11
v 11 0 -11
v 20 0 -11
v -11 0 -20
v -1 0 -20
v 1 0 -20
v 11 0 -20
v -20 9 20
v -11 9 20
v 11 9 20
v 20 9 20
v -20 9 11
v -11 9 11
v 11 9 11
v 20 9 11
v -20 9 -11
v -11 9 -11
v 11 9 -11
v 20 9 -11
v -20 9 -20
v -11 9 -20
v 11 9 -20
v 20 9 -20
v -1 13 20
v 1 13 20
v -1 13 7
v 1 13 7
v -20 13 1
v -7 13 1
v 7 13 1
v 20 13 1
v -20 13 -1
v -7 13 -1
v 7 13 -1
v 20 13 -1
v -1 13 -7
v 1 13 -7
v -1 13 -20
v 1 13 -20
v -5 19 20
v 5 19 20
v -5 19 10
v 5 19 10
v -20 19 6
v -12 19 6
v 12 19 6
v 20 19 6
v -20 19 -6
v -12 19 -6
v 12 19 -6
v 20 19 -6
v -5 19 -10
v 5 19 -10
v -5 19 -20
v 5 19 -20
v -20 21 20
v -9 21 20
v 9 21 20
v 20 21 20
v -20 21 11
v -9 21 11
v 9 21 11
v 20 21 11
v -20 21 -11
v -9 21 -11
v 9 21 -11
v 20 21 -11
v -20 21 -20
v -9 21 -20
v 9 21 -20
v 20 21 -20
v -5 24 20
v 5 24 20
v -5 24 10
v 5 24 10
v -20 24 6
v -12 24 6
v 12 24 6
v 20 24 6
v -20 24 -6
v -12 24 -6
v 12 24 -6
v 20 24 -6
v -5 24 -10
v 5 24 -10
v -5 24 -20
v 5 24 -20
v -5 16 20
v 5 16 20
v -5 16 10
v 5 16 10
v -20 16 6
v -12 16 6
v 12 16 6
v 20 16 6
v -20 16 -6
v -12 16 -6
v 12 16 -6
v 20 16 -6
v -5 16 -10
v 5 16 -10
v -5 16 -20
v 5 16 -20
v -20 19 20
v -9 19 20
v 9 19 20
v 20 19 20
v -20 19 11
v -9 19 11
v 9 19 11
v 20 19 11
v -20 19 -11
v -9 19 -11
v 9 19 -11
v 20 19 -11
v -20 19 -20
v -9 19 -20
v 9 19 -20
v 20 19 -20
v -5 21 20
v 5 21 20
v -5 21 10
v 5 21 10
v -20 21 6
v -12 21 6
v 12 21 6
v 20 21 6
v -20 21 -6
v -12 21 -6
v 12 21 -6
v 20 21 -6
v -5 21 -10
v 5 21 -10
v -5 21 -20
v 5 21 -20
v -1 27 20
v 1 27 20
v -1 27 7
v 1 27 7
v -20 27 1
v -7 27 1
v 7 27 1
v 20 27 1
v -20 27 -1
v -7 27 -1
v 7 27 -1
v 20 27 -1
v -1 27 -7
v 1 27 -7
v -1 27 -20
v 1 27 -20
v -20 31 20
v -11 31 20
v 11 31 20
v 20 31 20
v -20 31 11
v -11 31 11
v 11 31 11
v 20 31 11
v -20 31 -11
v -11 31 -11
v 11 31 -11
v 20 31 -11
v -20 31 -20
v -11 31 -20
v 11 31 -20
v 20 31 -20
v -11 40 20
v -1 40 20
v 1 40 20
v 11 40 20
v -20 40 11
v -11 40 11
v 11 40 11
v 20 40 11
v -1 40 7
v 1 40 7
v -1 40 6
v 1 40 6
v -20 40 1
v -7 40 1
v -6 40 1
v 6 40 1
v 7 40 1
v 20 40 1
v -20 40 -1
v -7 40 -1
v -6 40 -1
v 6 40 -1
v 7 40 -1
v 20 40 -1
v -1 40 -6
v 1 40 -6
v -1 40 -7
v 1 40 -7
v -20 40 -11
v -11 40 -11
v 11 40 -11
v 20 40 -11
v -11 40 -20
v -1 40 -20
v 1 40 -20
v 11 40 -20

# faces
f 6/2/1 2/2/1 1/2/1
f 7/2/1 4/2/1 3/2/1
f 9/2/1 6/2/1 5/2/1
f 9/2/1 2/2/1 6/2/1
f 10/2/1 8/2/1 7/2/1
f 10/2/1 7/2/1 3/2/1
f 11/2/1 9/2/1 5/2/1
f 11/1/1 10/1/1 9/1/1
f 12/2/1 8/2/1 10/2/1
f 12/1/1 10/1/1 11/1/1
f 13/2/1 11/2/1 5/2/1
f 13/2/1 12/2/1 11/2/1
f 14/2/1 8/2/1 12/2/1
f 14/2/1 12/2/1 13/2/1
f 15/2/1 13/2/1 5/2/1
f 16/2/1 13/2/1 15/2/1
f 17/2/1 13/2/1 16/2/1
f 18/2/1 13/2/1 17/2/1
f 19/2/1 8/2/1 14/2/1
f 20/2/1 8/2/1 19/2/1
f 21/2/1 8/2/1 20/2/1
f 22/2/1 8/2/1 21/2/1
f 24/1/1 17/1/1 16/1/1
f 25/2/1 18/2/1 17/2/1
f 25/2/1 19/2/1 18/2/1
f 25/1/1 17/1/1 24/1/1
f 25/2/1 20/2/1 19/2/1
f 26/2/1 20/2/1 25/2/1
f 27/2/1 20/2/1 26/2/1
f 28/1/1 21/1/1 20/1/1
f 28/2/1 20/2/1 27/2/1
f 29/1/1 21/1/1 28/1/1
f 31/2/1 24/2/1 23/2/1
f 31/2/1 25/2/1 24/2/1
f 31/2/1 26/2/1 25/2/1
f 32/2/1 30/2/1 29/2/1
f 32/2/1 29/2/1 28/2/1
f 32/2/1 28/2/1 27/2/1
f 33/2/1 32/2/1 31/2/1
f 34/2/1 32/2/1 33/2/1
f 35/2/1 33/2/1 31/2/1
f 35/1/1 34/1/1 33/1/1
f 36/2/1 32/2/1 34/2/1
f 36/1/1 34/1/1 35/1/1
f 37/2/1 31/2/1 23/2/1
f 37/2/1 35/2/1 31/2/1
f 38/2/1 35/2/1 37/2/1
f 39/2/1 32/2/1 36/2/1
f 39/2/1 30/2/1 32/2/1
f 40/2/1 30/2/1 39/2/1
f 41/2/1 35/2/1 38/2/1
f 42/2/1 35/2/1 41/2/1
f 43/2/1 39/2/1 36/2/1
f 44/2/1 39/2/1 43/2/1
f 47/1/1 46/1/1 45/1/1
f 48/1/1 46/1/1 47/1/1
f 51/1/1 50/1/1 49/1/1
f 52/1/1 50/1/1 51/1/1
f 57/2/1 54/2/1 53/2/1
f 58/2/1 54/2/1 57/2/1
f 59/2/1 56/2/1 55/2/1
f 60/2/1 56/2/1 59/2/1
f 65/2/1 62/2/1 61/2/1
f 66/2/1 62/2/1 65/2/1
f 67/2/1 64/2/1 63/2/1
f 68/2/1 64/2/1 67/2/1
f 73/1/1 70/1/1 69/1/1
f 74/1/1 70/1/1 73/1/1
f 75/1/1 72/1/1 71/1/1
f 76/1/1 72/1/1 75/1/1
f 79/1/1 78/1/1 77/1/1
f 80/1/1 78/1/1 79/1/1
f 83/1/1 82/1/1 81/1/1
f 84/1/1 82/1/1 83/1/1
f 89/2/1 86/2/1 85/2/1
f 90/2/1 86/2/1 89/2/1
f 91/2/1 88/2/1 87/2/1
f 92/2/1 88/2/1 91/2/1
f 97/2/1 94/2/1 93/2/1
f 98/2/1 94/2/1 97/2/1
f 99/2/1 96/2/1 95/2/1
f 100/2/1 96/2/1 99/2/1
f 105/2/1 102/2/1 101/2/1
f 106/2/1 102/2/1 105/2/1
f 107/2/1 104/2/1 103/2/1
f 108/2/1 104/2/1 107/2/1
f 113/2/1 110/2/1 109/2/1
f 114/2/1 110/2/1 113/2/1
f 115/2/1 112/2/1 111/2/1
f 116/2/1 112/2/1 115/2/1
f 117/2/2 118/2/2 121/2/2
f 121/2/2 118/2/2 122/2/2
f 119/2/2 120/2/2 123/2/2
f 123/2/2 120/2/2 124/2/2
f 125/2/2 126/2/2 129/2/2
f 129/2/2 126/2/2 130/2/2
f 127/2/2 128/2/2 131/2/2
f 131/2/2 128/2/2 132/2/2
f 133/2/2 134/2/2 137/2/2
f 137/2/2 134/2/2 138/2/2
f 135/2/2 136/2/2 139/2/2
f 139/2/2 136/2/2 140/2/2
f 141/2/2 142/2/2 145/2/2
f 145/2/2 142/2/2 146/2/2
f 143/2/2 144/2/2 147/2/2
f 147/2/2 144/2/2 148/2/2
f 149/1/2 150/1/2 151/1/2
f 151/1/2 150/1/2 152/1/2
f 153/1/2 154/1/2 155/1/2
f 155/1/2 154/1/2 156/1/2
f 157/1/2 158/1/2 161/1/2
f 161/1/2 158/1/2 162/1/2
f 159/1/2 160/1/2 163/1/2
f 163/1/2 160/1/2 164/1/2
f 165/2/2 166/2/2 169/2/2
f 169/2/2 166/2/2 170/2/2
f 167/2/2 168/2/2 171/2/2
f 171/2/2 168/2/2 172/2/2
f 173/2/2 174/2/2 177/2/2
f 177/2/2 174/2/2 178/2/2
f 175/2/2 176/2/2 179/2/2
f 179/2/2 176/2/2 180/2/2
f 181/1/2 182/1/2 183/1/2
f 183/1/2 182/1/2 184/1/2
f 185/1/2 186/1/2 187/1/2
f 187/1/2 186/1/2 188/1/2
f 189/2/2 190/2/2 194/2/2
f 191/2/2 192/2/2 195/2/2
f 193/2/2 194/2/2 197/2/2
f 194/2/2 190/2/2 197/2/2
f 195/2/2 196/2/2 198/2/2
f 191/2/2 195/2/2 198/2/2
f 193/2/2 197/2/2 199/2/2
f 197/1/2 198/1/2 199/1/2
f 198/2/2 196/2/2 200/2/2
f 199/1/2 198/1/2 200/1/2
f 193/2/2 199/2/2 201/2/2
f 199/2/2 200/2/2 201/2/2
f 200/2/2 196/2/2 202/2/2
f 201/2/2 200/2/2 202/2/2
f 193/2/2 201/2/2 203/2/2
f 203/2/2 201/2/2 204/2/2
f 204/2/2 201/2/2 205/2/2
f 205/2/2 201/2/2 206/2/2
f 202/2/2 196/2/2 207/2/2
f 207/2/2 196/2/2 208/2/2
f 208/2/2 196/2/2 209/2/2
f 209/2/2 196/2/2 210/2/2
f 204/1/2 205/1/2 212/1/2
f 205/2/2 206/2/2 213/2/2
f 206/2/2 207/2/2 213/2/2
f 212/1/2 205/1/2 213/1/2
f 207/2/2 208/2/2 213/2/2
f 213/2/2 208/2/2 214/2/2
f 214/2/2 208/2/2 215/2/2
f 208/1/2 209/1/2 216/1/2
f 215/2/2 208/2/2 216/2/2
f 216/1/2 209/1/2 217/1/2
f 211/2/2 212/2/2 219/2/2
f 212/2/2 213/2/2 219/2/2
f 213/2/2 214/2/2 219/2/2
f 217/2/2 218/2/2 220/2/2
f 216/2/2 217/2/2 220/2/2
f 215/2/2 216/2/2 220/2/2
f 219/2/2 220/2/2 221/2/2
f 221/2/2 220/2/2 222/2/2
f 219/2/2 221/2/2 223/2/2
f 221/1/2 222/1/2 223/1/2
f 222/2/2 220/2/2 224/2/2
f 223/1/2 222/1/2 224/1/2
f 211/2/2 219/2/2 225/2/2
f 219/2/2 223/2/2 225/2/2
f 225/2/2 223/2/2 226/2/2
f 224/2/2 220/2/2 227/2/2
f 220/2/2 218/2/2 227/2/2
f 227/2/2 218/2/2 228/2/2
f 226/2/2 223/2/2 229/2/2
f 229/2/2 223/2/2 230/2/2
f 224/2/2 227/2/2 231/2/2
f 231/2/2 227/2/2 232/2/2
f 238/2/3 234/2/3 233/2/3
f 239/2/3 236/2/3 235/2/3
f 241/2/3 238/2/3 237/2/3
f 241/2/3 234/2/3 238/2/3
f 242/2/3 240/2/3 239/2/3
f 242/2/3 239/2/3 235/2/3
f 243/2/3 241/2/3 237/2/3
f 243/1/3 242/1/3 241/1/3
f 244/2/3 240/2/3 242/2/3
f 244/1/3 242/1/3 243/1/3
f 245/2/3 243/2/3 237/2/3
f 245/2/3 244/2/3 243/2/3
f 246/2/3 244/2/3 245/2/3
f 247/2/3 240/2/3 244/2/3
f 247/2/3 244/2/3 246/2/3
f 248/2/3 240/2/3 247/2/3
f 249/2/3 245/2/3 237/2/3
f 250/2/3 245/2/3 249/2/3
f 251/2/3 245/2/3 250/2/3
f 252/2/3 240/2/3 248/2/3
f 253/2/3 240/2/3 252/2/3
f 254/2/3 240/2/3 253/2/3
f 256/1/3 251/1/3 250/1/3
f 257/2/3 245/2/3 251/2/3
f 257/1/3 251/1/3 256/1/3
f 258/1/3 253/1/3 252/1/3
f 258/2/3 252/2/3 248/2/3
f 259/1/3 253/1/3 258/1/3
f 261/2/3 256/2/3 255/2/3
f 261/2/3 245/2/3 257/2/3
f 261/2/3 257/2/3 256/2/3
f 262/2/3 247/2/3 246/2/3
f 263/2/3 247/2/3 262/2/3
f 264/2/3 260/2/3 259/2/3
f 264/2/3 259/2/3 258/2/3
f 264/2/3 258/2/3 248/2/3
f 265/2/3 263/2/3 262/2/3
f 265/2/3 264/2/3 263/2/3
f 265/2/3 262/2/3 261/2/3
f 266/2/3 264/2/3 265/2/3
f 267/2/3 265/2/3 261/2/3
f 267/1/3 266/1/3 265/1/3
f 268/2/3 264/2/3 266/2/3
f 268/1/3 266/1/3 267/1/3
f 269/2/3 261/2/3 255/2/3
f 269/2/3 267/2/3 261/2/3
f 270/2/3 267/2/3 269/2/3
f 271/2/3 260/2/3 264/2/3
f 271/2/3 264/2/3 268/2/3
f 272/2/3 260/2/3 271/2/3
f 273/2/3 267/2/3 270/2/3
f 274/2/3 267/2/3 273/2/3
f 275/2/3 271/2/3 268/2/3
f 276/2/3 271/2/3 275/2/3
f 283/2/3 278/2/3 277/2/3
f 284/2/3 278/2/3 283/2/3
f 285/2/3 282/2/3 281/2/3
f 286/2/3 282/2/3 285/2/3
f 287/1/3 280/1/3 279/1/3
f 288/1/3 280/1/3 287/1/3
f 295/2/3 292/2/3 291/2/3
f 296/2/3 292/2/3 295/2/3
f 297/1/3 290/1/3 289/1/3
f 298/1/3 290/1/3 297/1/3
f 299/2/3 294/2/3 293/2/3
f 300/2/3 294/2/3 299/2/3
f 305/1/3 302/1/3 301/1/3
f 306/1/3 302/1/3 305/1/3
f 307/1/3 304/1/3 303/1/3
f 308/1/3 304/1/3 307/1/3
f 313/1/3 310/1/3 309/1/3
f 314/1/3 310/1/3 313/1/3
f 315/1/3 312/1/3 311/1/3
f 316/1/3 312/1/3 315/1/3
f 321/2/3 318/2/3 317/2/3
f 322/2/3 318/2/3 321/2/3
f 323/2/3 320/2/3 319/2/3
f 324/2/3 320/2/3 323/2/3
f 329/2/3 326/2/3 325/2/3
f 330/2/3 326/2/3 329/2/3
f 331/2/3 328/2/3 327/2/3
f 332/2/3 328/2/3 331/2/3
f 337/2/3 334/2/3 333/2/3
f 338/2/3 334/2/3 337/2/3
f 339/2/3 336/2/3 335/2/3
f 340/2/3 336/2/3 339/2/3
f 345/2/3 342/2/3 341/2/3
f 346/2/3 342/2/3 345/2/3
f 347/2/3 344/2/3 343/2/3
f 348/2/3 344/2/3 347/2/3
f 349/2/4 350/2/4 353/2/4
f 353/2/4 350/2/4 354/2/4
f 351/2/4 352/2/4 355/2/4
f 355/2/4 352/2/4 356/2/4
f 357/2/4 358/2/4 361/2/4
f 361/2/4 358/2/4 362/2/4
f 359/2/4 360/2/4 363/2/4
f 363/2/4 360/2/4 364/2/4
f 365/2/4 366/2/4 369/2/4
f 369/2/4 366/2/4 370/2/4
f 367/2/4 368/2/4 371/2/4
f 371/2/4 368/2/4 372/2/4
f 373/2/4 374/2/4 377/2/4
f 377/2/4 374/2/4 378/2/4
f 375/2/4 376/2/4 379/2/4
f 379/2/4 376/2/4 380/2/4
f 381/1/4 382/1/4 385/1/4
f 385/1/4 382/1/4 386/1/4
f 383/1/4 384/1/4 387/1/4
f 387/1/4 384/1/4 388/1/4
f 389/1/4 390/1/4 393/1/4
f 393/1/4 390/1/4 394/1/4
f 391/1/4 392/1/4 395/1/4
f 395/1/4 392/1/4 396/1/4
f 397/2/4 398/2/4 403/2/4
f 403/2/4 398/2/4 404/2/4
f 401/2/4 402/2/4 405/2/4
f 405/2/4 402/2/4 406/2/4
f 399/1/4 400/1/4 407/1/4
f 407/1/4 400/1/4 408/1/4
f 411/2/4 412/2/4 415/2/4
f 415/2/4 412/2/4 416/2/4
f 409/1/4 410/1/4 417/1/4
f 417/1/4 410/1/4 418/1/4
f 413/2/4 414/2/4 419/2/4
f 419/2/4 414/2/4 420/2/4
f 421/2/4 422/2/4 426/2/4
f 423/2/4 424/2/4 427/2/4
f 425/2/4 426/2/4 429/2/4
f 426/2/4 422/2/4 429/2/4
f 427/2/4 428/2/4 430/2/4
f 423/2/4 427/2/4 430/2/4
f 425/2/4 429/2/4 431/2/4
f 429/1/4 430/1/4 431/1/4
f 430/2/4 428/2/4 432/2/4
f 431/1/4 430/1/4 432/1/4
f 425/2/4 431/2/4 433/2/4
f 431/2/4 432/2/4 433/2/4
f 433/2/4 432/2/4 434/2/4
f 432/2/4 428/2/4 435/2/4
f 434/2/4 432/2/4 435/2/4
f 435/2/4 428/2/4 436/2/4
f 425/2/4 433/2/4 437/2/4
f 437/2/4 433/2/4 438/2/4
f 438/2/4 433/2/4 439/2/4
f 436/2/4 428/2/4 440/2/4
f 440/2/4 428/2/4 441/2/4
f 441/2/4 428/2/4 442/2/4
f 438/1/4 439/1/4 444/1/4
f 439/2/4 433/2/4 445/2/4
f 444/1/4 439/1/4 445/1/4
f 440/1/4 441/1/4 446/1/4
f 436/2/4 440/2/4 446/2/4
f 446/1/4 441/1/4 447/1/4
f 443/2/4 444/2/4 449/2/4
f 445/2/4 433/2/4 449/2/4
f 444/2/4 445/2/4 449/2/4
f 434/2/4 435/2/4 450/2/4
f 450/2/4 435/2/4 451/2/4
f 447/2/4 448/2/4 452/2/4
f 446/2/4 447/2/4 452/2/4
f 436/2/4 446/2/4 452/2/4
f 450/2/4 451/2/4 453/2/4
f 451/2/4 452/2/4 453/2/4
f 449/2/4 450/2/4 453/2/4
f 453/2/4 452/2/4 454/2/4
f 449/2/4 453/2/4 455/2/4
f 453/1/4 454/1/4 455/1/4
f 454/2/4 452/2/4 456/2/4
f 455/1/4 454/1/4 456/1/4
f 443/2/4 449/2/4 457/2/4
f 449/2/4 455/2/4 457/2/4
f 457/2/4 455/2/4 458/2/4
f 452/2/4 448/2/4 459/2/4
f 456/2/4 452/2/4 459/2/4
f 459/2/4 448/2/4 460/2/4
f 458/2/4 455/2/4 461/2/4
f 461/2/4 455/2/4 462/2/4
f 456/2/4 459/2/4 463/2/4
f 463/2/4 459/2/4 464/2/4
f 470/2/5 466/2/5 465/2/5
f 471/2/5 468/2/5 467/2/5
f 473/2/5 470/2/5 469/2/5
f 473/2/5 466/2/5 470/2/5
f 474/2/5 472/2/5 471/2/5
f 474/2/5 471/2/5 467/2/5
f 475/2/5 473/2/5 469/2/5
f 475/1/5 474/1/5 473/1/5
f 476/2/5 472/2/5 474/2/5
f 476/1/5 474/1/5 475/1/5
f 477/2/5 475/2/5 469/2/5
f 477/2/5 476/2/5 475/2/5
f 478/2/5 476/2/5 477/2/5
f 479/2/5 476/2/5 478/2/5
f 480/2/5 472/2/5 476/2/5
f 480/2/5 476/2/5 479/2/5
f 481/2/5 472/2/5 480/2/5
f 482/2/5 472/2/5 481/2/5
f 484/1/5 479/1/5 478/1/5
f 485/2/5 480/2/5 479/2/5
f 485/1/5 479/1/5 484/1/5
f 486/1/5 481/1/5 480/1/5
f 486/2/5 480/2/5 485/2/5
f 487/1/5 481/1/5 486/1/5
f 489/2/5 485/2/5 484/2/5
f 489/2/5 488/2/5 487/2/5
f 489/2/5 487/2/5 486/2/5
f 489/2/5 486/2/5 485/2/5
f 489/2/5 484/2/5 483/2/5
f 490/2/5 488/2/5 489/2/5
f 491/2/5 489/2/5 483/2/5
f 491/1/5 490/1/5 489/1/5
f 492/2/5 488/2/5 490/2/5
f 492/1/5 490/1/5 491/1/5
f 493/2/5 491/2/5 483/2/5
f 494/2/5 491/2/5 493/2/5
f 495/2/5 488/2/5 492/2/5
f 496/2/5 488/2/5 495/2/5
f 497/2/5 491/2/5 494/2/5
f 498/2/5 491/2/5 497/2/5
f 499/2/5 495/2/5 492/2/5
f 500/2/5 495/2/5 499/2/5
f 505/2/5 502/2/5 501/2/5
f 506/2/5 502/2/5 505/2/5
f 507/2/5 504/2/5 503/2/5
f 508/2/5 504/2/5 507/2/5
f 513/2/5 510/2/5 509/2/5
f 514/2/5 510/2/5 513/2/5
f 515/2/5 512/2/5 511/2/5
f 516/2/5 512/2/5 515/2/5
f 519/1/5 518/1/5 517/1/5
f 520/1/5 518/1/5 519/1/5
f 525/1/5 522/1/5 521/1/5
f 526/1/5 522/1/5 525/1/5
f 527/1/5 524/1/5 523/1/5
f 528/1/5 524/1/5 527/1/5
f 531/1/5 530/1/5 529/1/5
f 532/1/5 530/1/5 531/1/5
f 535/2/5 534/2/5 533/2/5
f 536/2/5 534/2/5 535/2/5
f 541/2/5 538/2/5 537/2/5
f 542/2/5 538/2/5 541/2/5
f 543/2/5 540/2/5 539/2/5
f 544/2/5 540/2/5 543/2/5
f 547/2/5 546/2/5 545/2/5
f 548/2/5 546/2/5 547/2/5
f 553/2/5 550/2/5 549/2/5
f 554/2/5 550/2/5 553/2/5
f 555/2/5 552/2/5 551/2/5
f 556/2/5 552/2/5 555/2/5
f 561/2/5 558/2/5 557/2/5
f 562/2/5 558/2/5 561/2/5
f 563/2/5 560/2/5 559/2/5
f 564/2/5 560/2/5 563/2/5
f 567/2/5 566/2/5 565/2/5
f 568/2/5 566/2/5 567/2/5
f 573/2/5 570/2/5 569/2/5
f 574/2/5 570/2/5 573/2/5
f 575/2/5 572/2/5 571/2/5
f 576/2/5 572/2/5 575/2/5
f 579/2/5 578/2/5 577/2/5
f 580/2/5 578/2/5 579/2/5
f 581/2/6 582/2/6 583/2/6
f 583/2/6 582/2/6 584/2/6
f 585/2/6 586/2/6 589/2/6
f 589/2/6 586/2/6 590/2/6
f 587/2/6 588/2/6 591/2/6
f 591/2/6 588/2/6 592/2/6
f 593/2/6 594/2/6 595/2/6
f 595/2/6 594/2/6 596/2/6
f 597/2/6 598/2/6 601/2/6
f 601/2/6 598/2/6 602/2/6
f 599/2/6 600/2/6 603/2/6
f 603/2/6 600/2/6 604/2/6
f 605/2/6 606/2/6 609/2/6
f 609/2/6 606/2/6 610/2/6
f 607/2/6 608/2/6 611/2/6
f 611/2/6 608/2/6 612/2/6
f 613/2/6 614/2/6 615/2/6
f 615/2/6 614/2/6 616/2/6
f 617/2/6 618/2/6 621/2/6
f 621/2/6 618/2/6 622/2/6
f 619/2/6 620/2/6 623/2/6
f 623/2/6 620/2/6 624/2/6
f 625/2/6 626/2/6 627/2/6
f 627/2/6 626/2/6 628/2/6
f 629/1/6 630/1/6 631/1/6
f 631/1/6 630/1/6 632/1/6
f 633/1/6 634/1/6 637/1/6
f 637/1/6 634/1/6 638/1/6
f 635/1/6 636/1/6 639/1/6
f 639/1/6 636/1/6 640/1/6
f 641/1/6 642/1/6 643/1/6
f 643/1/6 642/1/6 644/1/6
f 645/2/6 646/2/6 649/2/6
f 649/2/6 646/2/6 650/2/6
f 647/2/6 648/2/6 651/2/6
f 651/2/6 648/2/6 652/2/6
f 653/2/6 654/2/6 657/2/6
f 657/2/6 654/2/6 658/2/6
f 655/2/6 656/2/6 659/2/6
f 659/2/6 656/2/6 660/2/6
f 661/2/6 662/2/6 666/2/6
f 663/2/6 664/2/6 667/2/6
f 665/2/6 666/2/6 669/2/6
f 666/2/6 662/2/6 669/2/6
f 667/2/6 668/2/6 670/2/6
f 663/2/6 667/2/6 670/2/6
f 665/2/6 669/2/6 671/2/6
f 669/1/6 670/1/6 671/1/6
f 670/2/6 668/2/6 672/2/6
f 671/1/6 670/1/6 672/1/6
f 665/2/6 671/2/6 673/2/6
f 671/2/6 672/2/6 673/2/6
f 673/2/6 672/2/6 674/2/6
f 674/2/6 672/2/6 675/2/6
f 672/2/6 668/2/6 676/2/6
f 675/2/6 672/2/6 676/2/6
f 676/2/6 668/2/6 677/2/6
f 677/2/6 668/2/6 678/2/6
f 674/1/6 675/1/6 680/1/6
f 675/2/6 676/2/6 681/2/6
f 680/1/6 675/1/6 681/1/6
f 676/1/6 677/1/6 682/1/6
f 681/2/6 676/2/6 682/2/6
f 682/1/6 677/1/6 683/1/6
f 680/2/6 681/2/6 685/2/6
f 683/2/6 684/2/6 685/2/6
f 682/2/6 683/2/6 685/2/6
f 681/2/6 682/2/6 685/2/6
f 679/2/6 680/2/6 685/2/6
f 685/2/6 684/2/6 686/2/6
f 679/2/6 685/2/6 687/2/6
f 685/1/6 686/1/6 687/1/6
f 686/2/6 684/2/6 688/2/6
f 687/1/6 686/1/6 688/1/6
f 679/2/6 687/2/6 689/2/6
f 689/2/6 687/2/6 690/2/6
f 688/2/6 684/2/6 691/2/6
f 691/2/6 684/2/6 692/2/6
f 690/2/6 687/2/6 693/2/6
f 693/2/6 687/2/6 694/2/6
f 688/2/6 691/2/6 695/2/6
f 695/2/6 691/2/6 696/2/6
